<svg viewBox="0 0 247.808 263.361" xmlns="http://www.w3.org/2000/svg" xmlns:xlink="http://www.w3.org/1999/xlink" width="247.807617" height="263.361023" fill="none" customFrame="#000000">
	<g id="Сочетание 54">
		<path id="Эллипс 50" d="M0 83.668C4.89459 44.8844 37.2186 71.6455 49.4077 57.5893C61.7154 43.3963 49.0487 0 60.3666 0C82.8933 0 88.1025 46.9636 88.1025 71.0306C88.1025 95.0975 63.3149 111.993 40.7882 111.993C18.2615 111.993 0 107.735 0 83.668Z" fill="rgb(196,196,196)" fill-rule="evenodd" transform="matrix(0.758521,-0.651649,0.651649,0.758521,108,178.412)" />
		<path id="Эллипс 51" d="M0 146.557C0 122.867 4.49994 64.0572 38.0001 9.05717C53.7996 -17.2263 62.1015 22.057 88 22.057C113.745 22.057 122.306 -16.9992 139.5 9.05705C155.87 33.8655 181.5 122.718 181.5 146.557C181.5 195.434 138.258 198.557 88 198.557C37.7421 198.557 0 195.434 0 146.557Z" fill="rgb(196,196,196)" fill-rule="evenodd" />
		<path id="Эллипс 52" d="M40 166.797C40 154.15 42.5041 122.754 61.1461 93.3923C69.9381 79.3608 74.5578 100.332 88.9697 100.332C103.296 100.332 108.06 79.4821 117.628 93.3923C126.738 106.636 141 154.07 141 166.797C141 192.89 116.937 194.557 88.9697 194.557C61.0025 194.557 40 192.89 40 166.797Z" fill="rgb(240,240,240)" fill-rule="evenodd" />
		<g id="Сочетание 44">
			<ellipse id="Эллипс 30" rx="10.000000" ry="10.000001" cx="108" cy="53.5571289" fill="rgb(255,255,255)" />
			<ellipse id="Эллипс 31" rx="7.500000" ry="7.500001" cx="105.5" cy="54.0571289" fill="rgb(0,0,0)" />
			<circle id="Эллипс 29" cx="109.5" cy="52.0571289" r="2.5" fill="rgb(255,255,255)" />
		</g>
		<g id="Сочетание 45">
			<ellipse id="Эллипс 32" rx="10.000000" ry="10.000001" cx="10" cy="10.000001" fill="rgb(255,255,255)" transform="matrix(-1,0,0,1,83,43.5571)" />
			<ellipse id="Эллипс 33" rx="7.500000" ry="7.500001" cx="7.5" cy="7.50000095" fill="rgb(0,0,0)" transform="matrix(-1,0,0,1,83,46.5571)" />
			<circle id="Эллипс 34" cx="2.5" cy="2.50000024" r="2.5" fill="rgb(255,255,255)" transform="matrix(-1,0,0,1,74,49.5571)" />
		</g>
		<path id="Линия 51" d="M81.0003 74.5573C81.0003 74.5573 80.6253 78.5571 82.5003 79.5571C84.3753 80.5571 86.6254 80.1822 88.5004 78.5572C90.3754 76.9322 90.0002 71.5571 90.0002 71.5571C90.0002 71.5571 89.7504 76.9323 91.5004 78.5573C93.2505 80.1823 95.1253 80.5572 97.0002 79.5572C98.8752 78.5572 99.0002 74.5572 99.0002 74.5572" stroke="rgb(126,126,126)" stroke-width="1" />
		<path id="Эллипс 53" d="M85 67.3446C85 64.5831 87.2386 65.8447 90 65.8447C92.7614 65.8447 95 64.5831 95 67.3446C95 68.7253 93.9047 69.6524 92.9999 70.5573C92.0951 71.4621 91.3807 72.3446 90 72.3446C88.6193 72.3446 87.9049 71.4619 87.0001 70.5571C86.0953 69.6523 85 68.7253 85 67.3446Z" fill="rgb(219,165,165)" fill-rule="evenodd" />
		<path id="Эллипс 54" d="M85 67.3446C85 64.5831 87.2386 65.8447 90 65.8447C92.7614 65.8447 95 64.5831 95 67.3446C95 68.7253 92.9049 68.1523 92.0001 69.0571C91.0953 69.962 91.3808 72.3445 90 72.3445C88.6193 72.3445 88.9049 69.9621 88 69.0572C87.0952 68.1524 85 68.7253 85 67.3446Z" fill="rgb(255,193,193)" fill-rule="evenodd" />
		<path id="Линия 52" d="M1.88231 0.0311534C1.88231 0.0311534 -5.99973 -2.39369 10.4945 35.5428C10.3071 39.038 2.65792 41.6322 3.91516 46.206C5.1724 50.7798 9.91996 53.2874 15.5235 53.838C21.1271 54.3886 26.3831 47.4097 26.49 45.4126C27.7647 21.5951 28.3622 10.4627 28.3622 10.4627C28.3622 10.4627 29.8595 38.5831 28.0412 44.4942C26.0083 54.3995 35.4101 54.1522 41.2366 55.2154C47.063 56.2786 50.5714 52.7111 51.3471 48.747C52.1228 44.7828 42.1195 38.7388 44.5266 35.8637C67.7606 4.06091 57.9626 0.0311534 57.9626 0.0311534" stroke="rgb(196,196,196)" stroke-width="1" transform="matrix(0.998568,-0.053495,0.053495,0.998568,60,153.21)" />
		<ellipse id="Эллипс 55" rx="14.000000" ry="10.000000" cx="76" cy="198.557129" fill="rgb(240,240,240)" />
		<ellipse id="Эллипс 55" rx="13.500000" ry="9.500000" cx="76" cy="198.557129" stroke="rgb(196,196,196)" stroke-width="1" />
		<ellipse id="Эллипс 56" rx="14.000000" ry="10.000000" cx="104" cy="198.557129" fill="rgb(240,240,240)" />
		<ellipse id="Эллипс 56" rx="13.500000" ry="9.500000" cx="104" cy="198.557129" stroke="rgb(196,196,196)" stroke-width="1" />
		<path id="Эллипс 57" d="M120 22.7368C120 17.1907 124.071 8.34315 129.5 6C134.25 8.34315 139 15.8517 139 21.3978C139 26.9439 136.139 25.0799 130.518 25.0799C124.896 25.0799 120 28.2829 120 22.7368Z" fill="rgb(255,193,193)" fill-rule="evenodd" />
		<path id="Эллипс 58" d="M0 16.7368C0 11.1907 4.0714 2.34315 9.49984 0C14.2499 2.34315 19 9.85174 19 15.3978C19 20.9439 16.1392 19.0799 10.5177 19.0799C4.8963 19.0799 0 22.2829 0 16.7368Z" fill="rgb(255,193,193)" fill-rule="evenodd" transform="matrix(-1,0,0,1,59,6)" />
		<path id="Эллипс 59" d="M131 82.9476C131 76.3951 145.714 70.2369 162 63.5C166 76.5001 166.5 77.4999 169 86.0001C156.391 94.8421 152.5 96.0001 141 99C129.5 102 131 89.5001 131 82.9476Z" fill="rgb(150,150,150)" fill-rule="evenodd" />
		<path id="Эллипс 60" d="M141.225 112.987C143 109.5 155.713 102.684 172 97C175 108 175.5 109.5 177 117.5C164.391 124.961 163.5 125.5 152 127.5C140.5 129.5 139.449 116.474 141.225 112.987Z" fill="rgb(150,150,150)" fill-rule="evenodd" />
		<path id="Эллипс 61" d="M1.32117 19.4727C4.82106 13.5255 16.8213 6.5256 32.9475 0C35.8214 9.52524 37.8213 14.5257 39.3214 23.0252C26.7127 31.8673 30.8215 29.0257 15.8211 35.5251C0.820735 42.0245 -2.17873 25.4198 1.32117 19.4727Z" fill="rgb(150,150,150)" fill-rule="evenodd" transform="matrix(-1,0,0,1,46.8213,61.9744)" />
		<path id="Эллипс 62" d="M0.684569 15.9868C2.45997 12.5 15.1734 5.68422 31.4595 0C33.4597 11.0001 34.4596 15.9868 34.9597 23.9999C21.4597 29 22.9599 28.5 11.4601 30.5C-0.0397196 32.5001 -1.09084 19.4737 0.684569 15.9868Z" fill="rgb(150,150,150)" fill-rule="evenodd" transform="matrix(-1,0,0,1,36.46,97)" />
		<line id="Линия 53" x1="108" x2="158" y1="72" y2="72" stroke="rgb(230,230,230)" stroke-width="1" />
		<line id="Линия 54" x1="0" x2="50" y1="0" y2="0" stroke="rgb(230,230,230)" stroke-width="1" transform="matrix(0.964618,-0.26365,0.26365,0.964618,108,69.1824)" />
		<line id="Линия 55" x1="0" x2="50" y1="0" y2="0" stroke="rgb(230,230,230)" stroke-width="1" transform="matrix(0.957708,0.287743,0.287743,-0.957708,108,75)" />
		<line id="Линия 56" x1="0" x2="50" y1="0" y2="0" stroke="rgb(230,230,230)" stroke-width="1" transform="matrix(-1,0,0,1,72,72)" />
		<line id="Линия 57" x1="0" x2="50" y1="0" y2="0" stroke="rgb(230,230,230)" stroke-width="1" transform="matrix(-0.956077,-0.293116,-0.293116,0.956077,71.8037,68.6558)" />
		<line id="Линия 58" x1="0" x2="50" y1="0" y2="0" stroke="rgb(230,230,230)" stroke-width="1" transform="matrix(-0.979842,0.199776,-0.199776,-0.979842,71.9922,75)" />
		<path id="Эллипс 63" d="M62 53.1784C62 47.557 66.9249 43 73 43C79.0751 43 84 47.557 84 53.1784C84 58.7998 79.0751 55 73 55C66.9249 55 62 58.7998 62 53.1784Z" fill="rgb(170,169,169)" fill-rule="evenodd" />
		<path id="Эллипс 64" d="M97 53.1784C97 47.557 101.925 43 108 43C114.075 43 119 47.557 119 53.1784C119 58.7998 114.075 55 108 55C101.925 55 97 58.7998 97 53.1784Z" fill="rgb(170,169,169)" fill-rule="evenodd" />
	</g>
</svg>
