<svg viewBox="0 0 279 223" xmlns="http://www.w3.org/2000/svg" xmlns:xlink="http://www.w3.org/1999/xlink" width="279.000000" height="223.000000" fill="none" customFrame="#000000">
	<g id="Сочетание 62">
		<path id="Эллипс 65" d="M0 81.5835C4.97655 43.7662 37.8419 69.8606 50.2351 56.1546C62.7489 42.3151 49.8701 0 61.3776 0C84.2816 0 89.578 45.7936 89.578 69.261C89.578 92.7283 64.3752 109.203 41.4713 109.203C18.5673 109.203 0 105.051 0 81.5835Z" fill="rgb(196,196,196)" fill-rule="evenodd" transform="matrix(0.839931,-0.542693,0.752419,0.658685,121.594,151.07)" />
		<path id="Эллипс 66" d="M0 124.097C0 104.037 5.06636 54.2402 42.7833 7.66913C60.5715 -14.5863 69.9183 18.6766 99.0768 18.6766C128.063 18.6766 137.701 -14.394 157.059 7.66903C175.49 28.6755 204.346 103.911 204.346 124.097C204.346 165.483 155.661 168.127 99.0768 168.127C42.4928 168.127 0 165.483 0 124.097Z" fill="rgb(196,196,196)" fill-rule="evenodd" />
		<path id="Эллипс 67" d="M45.0347 141.235C45.0347 130.526 47.854 103.942 68.8425 79.0796C78.7411 67.1985 83.9424 84.956 100.168 84.956C116.298 84.956 121.662 67.3012 132.434 79.0795C142.69 90.2939 158.748 130.458 158.748 141.235C158.748 163.329 131.656 164.741 100.168 164.741C68.6808 164.741 45.0347 163.329 45.0347 141.235Z" fill="rgb(240,240,240)" fill-rule="evenodd" />
		<g id="Сочетание 46">
			<ellipse id="Эллипс 30" rx="11.258724" ry="8.467464" cx="121.594177" cy="45.3493004" fill="rgb(255,255,255)" />
			<ellipse id="Эллипс 31" rx="8.444043" ry="6.350599" cx="118.779495" cy="45.7726555" fill="rgb(0,0,0)" />
			<ellipse id="Эллипс 29" rx="2.814681" ry="2.116866" cx="123.282944" cy="44.0792084" fill="rgb(255,255,255)" />
		</g>
		<g id="Сочетание 47">
			<ellipse id="Эллипс 32" rx="11.258724" ry="8.467464" cx="11.2587242" cy="8.46746445" fill="rgb(255,255,255)" transform="matrix(-1,0,0,1,93.4473,36.8818)" />
			<ellipse id="Эллипс 33" rx="8.444043" ry="6.350599" cx="8.44404316" cy="6.35059881" fill="rgb(0,0,0)" transform="matrix(-1,0,0,1,93.4473,39.4221)" />
			<ellipse id="Эллипс 34" rx="2.814681" ry="2.116866" cx="2.81468105" cy="2.11686611" fill="rgb(255,255,255)" transform="matrix(-1,0,0,1,83.3145,41.9623)" />
		</g>
		<path id="Линия 59" d="M91.1956 63.1311C91.1956 63.1311 90.7734 66.518 92.8844 67.3647C94.9954 68.2114 97.5287 67.894 99.6397 66.518C101.751 65.1421 101.328 60.5908 101.328 60.5908C101.328 60.5908 101.047 65.1422 103.017 66.5181C104.988 67.8941 107.098 68.2115 109.209 67.3648C111.32 66.518 111.461 63.1311 111.461 63.1311" stroke="rgb(126,126,126)" stroke-width="1" />
		<path id="Эллипс 68" d="M95.6992 57.0237C95.6992 54.6855 98.2196 55.7538 101.329 55.7538C104.438 55.7538 106.958 54.6855 106.958 57.0237C106.958 58.1929 105.725 58.9779 104.706 59.7441C103.687 60.5102 102.883 61.2575 101.329 61.2575C99.7741 61.2575 98.9698 60.5101 97.951 59.744C96.9323 58.9778 95.6992 58.1929 95.6992 57.0237Z" fill="rgb(219,165,165)" fill-rule="evenodd" />
		<path id="Эллипс 69" d="M95.6992 57.0237C95.6992 54.6855 98.2196 55.7538 101.329 55.7538C104.438 55.7538 106.958 54.6855 106.958 57.0237C106.958 58.1929 104.599 57.7077 103.58 58.4739C102.562 59.24 102.883 61.2575 101.329 61.2575C99.7741 61.2575 100.096 59.2401 99.0769 58.474C98.0582 57.7078 95.6992 58.1929 95.6992 57.0237Z" fill="rgb(255,193,193)" fill-rule="evenodd" />
		<path id="Линия 60" d="M2.11792 0.026408C2.11792 0.026408 -6.75073 -2.02908 11.8082 30.1288C11.5973 33.0916 2.99061 35.2906 4.40523 39.1677C5.81984 43.0448 11.1617 45.1705 17.4666 45.6372C23.7716 46.1039 29.6855 40.1881 29.8058 38.4951C31.2401 18.3056 31.9123 8.86897 31.9123 8.86897C31.9123 8.86897 33.5971 32.706 31.5512 37.7167C29.2638 46.1132 39.8425 45.9035 46.3983 46.8048C52.954 47.706 56.9016 44.682 57.7743 41.3217C58.6471 37.9613 47.3917 32.838 50.1001 30.4008C76.2424 3.44234 65.2179 0.026408 65.2179 0.026408" stroke="rgb(196,196,196)" stroke-width="1" transform="matrix(0.999189,-0.0402575,0.0710513,0.997473,67.5522,129.73)" />
		<ellipse id="Эллипс 70" rx="15.762213" ry="8.467463" cx="85.5664139" cy="168.127502" fill="rgb(240,240,240)" />
		<ellipse id="Эллипс 70" rx="15.262213" ry="7.967463" cx="85.5664139" cy="168.127502" stroke="rgb(196,196,196)" stroke-width="1" />
		<ellipse id="Эллипс 71" rx="15.762213" ry="8.467463" cx="117.090828" cy="168.127502" fill="rgb(240,240,240)" />
		<ellipse id="Эллипс 71" rx="15.262213" ry="7.967463" cx="117.090828" cy="168.127502" stroke="rgb(196,196,196)" stroke-width="1" />
		<path id="Эллипс 72" d="M135.104 19.2523C135.104 14.5562 139.688 7.06456 145.8 5.08051C151.148 7.06456 156.496 13.4224 156.496 18.1186C156.496 22.8147 153.275 21.2363 146.946 21.2363C140.617 21.2363 135.104 23.9485 135.104 19.2523Z" fill="rgb(255,193,193)" fill-rule="evenodd" />
		<path id="Эллипс 73" d="M0 14.1718C0 9.47572 4.58387 1.98405 10.6956 0C16.0436 1.98405 21.3916 8.34193 21.3916 13.038C21.3916 17.7342 18.1707 16.1558 11.8416 16.1558C5.51261 16.1558 0 18.868 0 14.1718Z" fill="rgb(255,193,193)" fill-rule="evenodd" transform="matrix(-1,0,0,1,66.4263,5.08051)" />
		<path id="Эллипс 74" d="M147.489 70.2355C147.489 64.6872 164.055 59.4728 182.391 53.7684C186.895 64.7762 187.458 65.6228 190.272 72.8202C176.076 80.3072 171.695 81.2877 158.748 83.8279C145.8 86.368 147.489 75.7839 147.489 70.2355Z" fill="rgb(150,150,150)" fill-rule="evenodd" />
		<path id="Эллипс 75" d="M159.001 95.6712C161 92.7187 175.313 86.9475 193.649 82.1344C197.027 91.4487 197.59 92.7187 199.279 99.4928C185.083 105.81 184.08 106.267 171.133 107.96C158.185 109.654 157.002 98.6237 159.001 95.6712Z" fill="rgb(150,150,150)" fill-rule="evenodd" />
		<path id="Эллипс 76" d="M1.48746 16.4884C5.4279 11.4527 18.9387 5.52553 37.0947 0C40.3304 8.06547 42.5819 12.2996 44.2708 19.4965C30.0751 26.9835 34.7011 24.5774 17.8126 30.0807C0.924044 35.5841 -2.45297 21.5241 1.48746 16.4884Z" fill="rgb(150,150,150)" fill-rule="evenodd" transform="matrix(-1,0,0,1,52.7148,52.4766)" />
		<path id="Эллипс 77" d="M0.770737 13.5368C2.76962 10.5843 17.0833 4.8131 35.4193 0C37.6714 9.31427 38.7971 13.5368 39.3601 20.3218C24.1609 24.5556 25.8499 24.1323 12.9026 25.8258C-0.0447197 27.5193 -1.22814 16.4893 0.770737 13.5368Z" fill="rgb(150,150,150)" fill-rule="evenodd" transform="matrix(-1,0,0,1,41.0488,82.1344)" />
		<line id="Линия 61" x1="121.594238" x2="177.887848" y1="60.9657593" y2="60.9657593" stroke="rgb(230,230,230)" stroke-width="1" />
		<line id="Линия 62" x1="0" x2="55.4372406" y1="0" y2="0" stroke="rgb(230,230,230)" stroke-width="1" transform="matrix(0.979519,-0.201349,0.201349,0.979519,121.594,58.58)" />
		<line id="Линия 63" x1="0" x2="55.2720642" y1="0" y2="0" stroke="rgb(230,230,230)" stroke-width="1" transform="matrix(0.975408,0.220405,-0.220405,0.975408,121.594,63.506)" />
		<line id="Линия 64" x1="0" x2="56.2936172" y1="0" y2="0" stroke="rgb(230,230,230)" stroke-width="1" transform="matrix(-1,0,0,-1,81.063,60.9658)" />
		<line id="Линия 65" x1="0" x2="55.2331886" y1="0" y2="0" stroke="rgb(230,230,230)" stroke-width="1" transform="matrix(-0.974433,-0.224679,0.224679,-0.974433,80.8423,58.134)" />
		<line id="Линия 66" x1="0" x2="55.8035278" y1="0" y2="0" stroke="rgb(230,230,230)" stroke-width="1" transform="matrix(-0.988447,0.151567,-0.151567,-0.988447,81.0542,63.506)" />
		<path id="Эллипс 78" d="M69.8042 45.0287C69.8042 40.2688 75.349 36.4101 82.1888 36.4101C89.0286 36.4101 94.5734 40.2688 94.5734 45.0287C94.5734 49.7886 89.0286 54.1918 82.1888 54.1918C75.349 54.1918 69.8042 49.7886 69.8042 45.0287Z" fill="rgb(170,169,169)" fill-rule="evenodd" />
		<path id="Эллипс 79" d="M109.209 45.0287C109.209 40.2688 114.754 36.4101 121.594 36.4101C128.434 36.4101 133.979 40.2688 133.979 45.0287C133.979 49.7886 128.434 54.6152 121.594 54.6152C114.754 54.6152 109.209 49.7886 109.209 45.0287Z" fill="rgb(170,169,169)" fill-rule="evenodd" />
	</g>
</svg>
