<svg viewBox="0 0 147 78" xmlns="http://www.w3.org/2000/svg" xmlns:xlink="http://www.w3.org/1999/xlink" width="147.000000" height="78.000000" fill="none" customFrame="#000000">
	<path id="Слияние" d="M50 0C57.3321 0 63.927 3.15642 68.5 8.18457C73.073 3.15642 79.6679 0 87 0C98.3842 0 107.991 7.60925 111.012 18.0192C111.34 18.0064 111.669 18 112 18C125.807 18 137 29.1929 137 43C137 56.8071 125.807 68 112 68C104.668 68 98.073 64.8436 93.5 59.8154C88.927 64.8436 82.3321 68 75 68C70.4464 68 66.1772 66.7826 62.5 64.6554C58.8228 66.7826 54.5536 68 50 68C45.4464 68 41.1772 66.7826 37.5 64.6554C33.8228 66.7826 29.5536 68 25 68C11.1929 68 0 56.8071 0 43C0 29.1929 11.1929 18 25 18C25.3308 18 25.66 18.0064 25.9877 18.0192C29.0088 7.60925 38.6158 0 50 0ZM64.801 11.5487Q64.0731 10.7483 63.2684 10.0343Q62.5479 9.39496 61.7659 8.8249Q60.7863 8.11081 59.7356 7.52405L59.7344 7.52337Q58.9975 7.11189 58.2256 6.76305Q57.2541 6.32401 56.247 5.99328Q55.2787 5.67528 54.2776 5.45741Q53.7501 5.34262 53.218 5.25663L53.215 5.25616Q51.6282 5 50 5Q47.9573 5 45.9956 5.39872L45.9954 5.39877Q44.7285 5.65629 43.4954 6.0801Q42.1351 6.54765 40.8689 7.19839Q39.3073 8.00098 37.8889 9.08224Q36.5981 10.0663 35.4946 11.2282L35.4944 11.2284Q34.4227 12.3568 33.5277 13.653Q32.5234 15.1075 31.7996 16.6903Q31.1975 18.0071 30.7895 19.4127Q30.5495 20.2399 30.0801 20.9054Q29.6108 21.5709 28.9121 22.0747Q28.2135 22.5785 27.4339 22.8136Q26.6542 23.0488 25.7935 23.0154Q25.3976 23 25 23Q23.4141 23 21.8664 23.2432L21.8664 23.2432Q21.4136 23.3144 20.964 23.4064Q19.9885 23.606 19.0426 23.9007L19.0424 23.9007Q18.1153 24.1895 17.2166 24.5696Q16.4904 24.8768 15.793 25.2392L15.7929 25.2392Q14.7766 25.7673 13.8213 26.4127Q13.1017 26.8989 12.4291 27.4431L12.4288 27.4434L12.4287 27.4435L12.4286 27.4436Q11.6082 28.1075 10.8579 28.8579Q10.1077 29.608 9.44396 30.4281L9.44389 30.4282L9.44365 30.4285Q8.8991 31.1014 8.41273 31.8213Q7.76734 32.7766 7.23927 33.7929L7.23905 33.7933L7.23831 33.7947Q6.87642 34.4914 6.56965 35.2166Q6.18945 36.1155 5.90059 37.0429L5.90054 37.043Q5.60598 37.9887 5.40641 38.964Q5.31473 39.412 5.24373 39.8633L5.24348 39.8649L5.24338 39.8655Q5 41.4136 5 43Q5 44.5863 5.24336 46.1343L5.24349 46.1352L5.24384 46.1374Q5.3148 46.5883 5.4064 47.036Q5.60598 48.0113 5.90054 48.957L5.90063 48.9572L5.90068 48.9574Q6.18951 49.8846 6.56965 50.7834Q6.87654 51.509 7.23861 52.2059L7.23911 52.2068L7.23925 52.2071Q7.76733 53.2234 8.41272 54.1787Q8.89893 54.8984 9.44327 55.571L9.44705 55.5757Q10.1095 56.3937 10.8579 57.1421Q11.6084 57.8926 12.4289 58.5566L12.4292 58.5569L12.4293 58.557Q13.1018 59.1012 13.8213 59.5873Q14.7769 60.2329 15.7935 60.761L15.7937 60.7612Q16.4908 61.1234 17.2166 61.4304Q18.1145 61.8101 19.0408 62.0988Q19.9876 62.3938 20.964 62.5936Q21.4136 62.6856 21.8664 62.7568L21.8709 62.7575Q23.4164 63 25 63Q26.8054 63 28.5546 62.6864L28.5565 62.686Q29.4181 62.5314 30.2661 62.3007Q31.399 61.9926 32.4802 61.5563L32.4805 61.5562Q33.7755 61.0336 34.9964 60.3274Q35.5772 59.9914 36.2031 59.8234Q36.829 59.6554 37.5 59.6554Q38.171 59.6554 38.7969 59.8234Q39.4228 59.9914 40.0036 60.3274Q41.2245 61.0337 42.5195 61.5562L42.5196 61.5562L42.5198 61.5563Q43.601 61.9925 44.7339 62.3007Q45.5827 62.5317 46.4453 62.6863L46.4455 62.6864Q48.1946 63 50 63Q51.8053 63 53.5544 62.6864L53.5545 62.6864L53.5547 62.6863Q54.4173 62.5317 55.2661 62.3007Q56.399 61.9925 57.4802 61.5563L57.4807 61.5561Q58.7756 61.0336 59.9964 60.3274Q60.5771 59.9915 61.203 59.8235L61.2031 59.8234Q61.829 59.6554 62.5 59.6554Q63.171 59.6554 63.7969 59.8234Q64.4228 59.9914 65.0036 60.3274Q66.2243 61.0336 67.5191 61.556L67.5198 61.5563L67.5204 61.5565L67.5206 61.5566L67.5211 61.5568Q68.6017 61.9927 69.7339 62.3007Q70.5826 62.5316 71.445 62.6863L71.4453 62.6863Q73.1945 63 75 63Q76.6278 63 78.2144 62.7439L78.2145 62.7439L78.215 62.7438L78.2154 62.7438L78.2174 62.7435Q78.7498 62.6574 79.2776 62.5426Q80.278 62.3249 81.2457 62.0072L81.2458 62.0071L81.2475 62.0066Q82.2543 61.6759 83.2256 61.237Q83.9952 60.8891 84.7301 60.4791L84.7325 60.4777L84.7333 60.4773Q85.7852 59.89 86.7659 59.1751Q87.5478 58.6051 88.2682 57.9659L88.2685 57.9656L88.2687 57.9655L88.2691 57.9651Q89.0734 57.2513 89.801 56.4513Q90.4978 55.6852 91.3633 55.2776Q92.2289 54.8701 93.2632 54.821Q94.2976 54.772 95.1978 55.0959Q96.0981 55.4197 96.8642 56.1165Q96.9071 56.1555 96.9492 56.1956L96.9556 56.2017Q96.9958 56.2402 97.0351 56.2795Q97.0768 56.3211 97.1174 56.3637L97.1272 56.374Q97.1635 56.4123 97.199 56.4513Q97.9262 57.2509 98.73 57.9643L98.7303 57.9646L98.7311 57.9653Q99.4518 58.6049 100.234 59.1751Q101.215 59.89 102.267 60.4773L102.267 60.4774L102.267 60.4776Q103.003 60.8885 103.774 61.237Q104.746 61.6759 105.752 62.0066L105.754 62.0071L105.754 62.0072Q106.722 62.3249 107.722 62.5426Q108.25 62.6574 108.783 62.7435L108.785 62.7438L108.785 62.7438L108.786 62.7439L108.786 62.7439Q110.372 63 112 63Q113.586 63 115.134 62.7567L115.134 62.7567L115.134 62.7566Q115.587 62.6855 116.036 62.5936Q117.012 62.3938 117.959 62.0988L117.96 62.0985L117.96 62.0984Q118.886 61.8099 119.783 61.4304Q120.508 61.1238 121.204 60.7622L121.205 60.7617L121.205 60.7616Q122.223 60.2332 123.179 59.5873Q123.898 59.1015 124.57 58.5578L124.57 58.5577L124.57 58.5575Q125.391 57.8931 126.142 57.1421Q126.89 56.3938 127.553 55.5758L127.558 55.5689Q128.102 54.8973 128.587 54.1787Q129.232 53.225 129.759 52.2106L129.76 52.2082Q130.123 51.5102 130.43 50.7834Q130.812 49.8815 131.101 48.9511L131.102 48.9501Q131.395 48.0077 131.594 47.036Q131.685 46.5901 131.756 46.141L131.756 46.1365Q132 44.5874 132 43Q132 41.4134 131.757 39.865L131.756 39.8638L131.756 39.8633Q131.685 39.412 131.594 38.964Q131.394 37.9878 131.099 37.0412L131.099 37.0404L131.099 37.0401Q130.81 36.1142 130.43 35.2166Q130.124 34.4919 129.762 33.7958L129.762 33.7947Q129.233 32.7775 128.587 31.8213Q128.102 31.1036 127.56 30.4328L127.559 30.4322L127.559 30.4316Q126.894 29.6096 126.142 28.8579Q125.39 28.1059 124.568 27.4408Q123.897 26.8978 123.179 26.4127Q122.223 25.7673 121.207 25.2392L121.206 25.2386L121.205 25.2382Q120.509 24.8764 119.783 24.5696Q118.885 24.1898 117.959 23.9012L117.947 23.8975Q117.006 23.6049 116.036 23.4064Q115.59 23.3152 115.142 23.2445L115.139 23.2441L115.134 23.2434Q113.586 23 112 23Q111.602 23 111.206 23.0154Q110.346 23.0488 109.566 22.8137Q108.786 22.5785 108.088 22.0747Q107.389 21.5709 106.92 20.9054Q106.451 20.2399 106.21 19.4127Q105.803 18.0075 105.201 16.691L105.201 16.6909Q104.477 15.1078 103.472 13.653Q102.578 12.3574 101.507 11.2294L101.506 11.2291L101.506 11.2287Q100.402 10.0665 99.1111 9.08224Q97.6937 8.00173 96.1332 7.19948L96.131 7.19836Q94.8649 6.54764 93.5046 6.0801Q92.2714 5.65625 91.0044 5.39872L91.0039 5.39863Q89.0425 5 87 5Q85.3722 5 83.7857 5.25604L83.7855 5.25608L83.785 5.25615L83.7846 5.25621Q83.2512 5.34234 82.7224 5.45741Q81.7219 5.67514 80.7542 5.99289L80.7538 5.993L80.7531 5.99324Q79.746 6.32398 78.7744 6.76305Q78.0032 7.11159 77.2669 7.52266Q76.2149 8.10996 75.2341 8.8249Q74.4517 9.39527 73.7308 10.035L73.7307 10.0351L73.7303 10.0355Q72.9264 10.749 72.199 11.5487Q71.5023 12.3148 70.6367 12.7224Q69.7711 13.1299 68.7368 13.179Q67.7024 13.228 66.8022 12.9042Q65.9019 12.5803 65.1358 11.8836Q65.0926 11.8442 65.0502 11.8038Q65.0445 11.7984 65.0389 11.793Q65.0016 11.7572 64.965 11.7206Q64.9245 11.6802 64.885 11.6388L64.8806 11.6342L64.875 11.6283Q64.8376 11.5889 64.801 11.5487Z" fill="rgb(230,230,250)" fill-opacity="0.5" fill-rule="evenodd" transform="matrix(-1,0,0,1,142,5)" />
</svg>
