<svg viewBox="0 0 100 100" xmlns="http://www.w3.org/2000/svg" xmlns:xlink="http://www.w3.org/1999/xlink" width="100.000000" height="100.000000" fill="none" customFrame="#000000">
	<path id="Звезда 45" d="M62.6797 34.5478C61.8133 34.5478 61.0454 33.9899 60.7777 33.1659L52.6287 8.08923L52.5917 7.97538L51.9021 5.85328C51.3033 4.01075 48.6967 4.01075 48.0979 5.85328L47.4083 7.97539L47.3713 8.08923L39.2223 33.1659C38.9546 33.9899 38.1867 34.5478 37.3203 34.5478L10.9531 34.549L10.8333 34.549L8.60173 34.5491C6.66437 34.5491 5.85886 37.0281 7.42618 38.1669L9.23156 39.4787L9.32849 39.5491L30.6594 55.0481C31.3603 55.5574 31.6536 56.4601 31.3859 57.2841L23.2388 82.3614L23.2018 82.4753L22.5124 84.5974C21.9138 86.44 24.0226 87.9722 25.59 86.8335L27.3953 85.522L27.4921 85.4516L48.8245 69.954C49.5254 69.4448 50.4746 69.4448 51.1755 69.954L72.5079 85.4516L72.6047 85.522L74.41 86.8335C75.9774 87.9722 78.0862 86.44 77.4876 84.5974L76.7982 82.4753L76.7612 82.3614L68.6141 57.2841C68.3464 56.4601 68.6397 55.5574 69.3406 55.0481L90.6715 39.5491L90.7684 39.4787L92.5738 38.1669C94.1411 37.0281 93.3356 34.5492 91.3982 34.5492L89.1667 34.549L89.0469 34.549L62.6797 34.5478ZM82.166 39.5487L62.6797 39.5478Q62.107 39.5478 61.5493 39.4566Q61.0134 39.3689 60.4914 39.1971Q59.9772 39.0278 59.5006 38.7849Q59.0133 38.5365 58.5653 38.211Q58.1173 37.8855 57.7304 37.4988Q57.3521 37.1207 57.0323 36.684Q56.7076 36.2408 56.4587 35.7584Q56.1995 35.256 56.0224 34.7112L50 16.1785L43.9776 34.7112Q43.8005 35.256 43.5413 35.7584Q43.2924 36.2407 42.9678 36.684Q42.6479 37.1207 42.2694 37.4989Q41.8826 37.8855 41.4347 38.211Q40.9868 38.5363 40.4997 38.7847Q40.023 39.0278 39.5086 39.1971Q38.9843 39.3697 38.4462 39.4573Q37.8907 39.5478 37.3206 39.5478L17.834 39.5487L33.5984 51.0032Q34.0619 51.3399 34.4596 51.7417Q34.8414 52.1274 35.1626 52.5732Q35.479 53.0122 35.7217 53.4888Q35.97 53.9763 36.1411 54.503Q36.3122 55.0295 36.3979 55.5695Q36.4817 56.098 36.4838 56.6395Q36.4859 57.1891 36.4037 57.7258Q36.3181 58.2844 36.1412 58.829L30.1202 77.3622L45.8857 65.9088Q46.3492 65.5721 46.8543 65.318Q47.3391 65.0741 47.8622 64.9063Q48.3774 64.7411 48.9055 64.6576Q49.446 64.5721 50 64.5721Q50.554 64.5721 51.0945 64.6576Q51.6226 64.7411 52.1378 64.9063Q52.6609 65.0741 53.1458 65.318Q53.6508 65.5721 54.1143 65.9088L69.8798 77.3622L63.8588 58.829Q63.6818 58.2844 63.5963 57.7258Q63.514 57.1891 63.5162 56.6395Q63.5183 56.0981 63.6021 55.5697Q63.6878 55.0296 63.8589 54.503Q64.0299 53.9766 64.278 53.4893Q64.5208 53.0125 64.8374 52.5732Q65.1588 52.1272 65.5409 51.7412Q65.9384 51.3397 66.4015 51.0032L82.166 39.5487Z" fill="rgb(255,236,179)" fill-opacity="0.5" fill-rule="evenodd" transform="matrix(-1,0,0,1,100,0)" />
</svg>
