<svg viewBox="0 0 110 89.1165" xmlns="http://www.w3.org/2000/svg" xmlns:xlink="http://www.w3.org/1999/xlink" width="110.000000" height="89.116470" fill="none" customFrame="#000000">
	<g id="Сочетание 39">
		<path id="Слияние" d="M20.261 17.0481C20.2969 17.0301 20.3329 17.0121 20.369 16.9942C21.7444 10.2805 36.0945 5 53.5944 5C71.0785 5 85.4186 10.271 86.816 16.9761Q86.8719 17.012 86.9276 17.0481C86.9654 18.2107 86.9835 19.362 86.9835 20.5012C86.9835 22.8954 86.9033 25.236 86.756 27.5156C89.5508 27.7115 105 29.2504 105 39.3373C105 47.1895 89.7995 58.4183 80.9235 64.3058C93.76 66.2574 102.189 69.5456 102.189 73.2731C102.189 79.2617 80.4323 84.1165 53.5944 84.1165C26.7564 84.1165 5 79.2617 5 73.2731C5 69.2951 14.5996 65.8175 28.9117 63.9307C25.2737 55.8196 20.1846 40.9504 20.1846 21.2385C20.1846 19.865 20.2093 18.468 20.261 17.0481ZM25.2272 18.1768Q25.1845 19.7132 25.1845 21.2432Q25.1845 26.5891 25.7066 31.8559Q26.335 38.1945 27.7085 44.315Q28.8723 49.5014 30.5399 54.3984Q31.8763 58.3227 33.4738 61.8844Q33.8976 62.8293 33.9253 63.7856Q33.9272 63.8524 33.9272 63.9193Q33.9272 64.8095 33.5845 65.7097Q33.216 66.6775 32.5594 67.3732Q31.9027 68.069 30.9579 68.4928Q30.7918 68.5673 30.6212 68.6293L30.6209 68.6294Q30.4507 68.6914 30.2759 68.7409Q30.1009 68.7906 29.9231 68.8273L29.9229 68.8273Q29.7454 68.864 29.5652 68.8878Q24.42 69.5661 20.2323 70.5057Q16.1784 71.4153 13.3754 72.4876Q12.3532 72.8787 11.5484 73.2731Q12.9122 73.9422 14.8673 74.588Q17.2508 75.3753 20.3219 76.0605Q26.7411 77.4929 35.1491 78.2865Q43.9432 79.1165 53.5944 79.1165Q63.2456 79.1165 72.0397 78.2865Q80.4477 77.4929 86.8669 76.0605Q89.9379 75.3753 92.3215 74.588Q94.2766 73.9422 95.6404 73.2731Q95.1028 73.0097 94.4623 72.7453Q92.0287 71.7409 88.4628 70.8602Q84.7679 69.9477 80.1719 69.2489Q79.1482 69.0933 78.3293 68.5985Q77.5105 68.1036 76.8967 67.2697Q76.2829 66.4357 76.0538 65.5068Q75.9173 64.9537 75.9173 64.367Q75.9173 63.9684 75.9803 63.5542Q76.0598 63.0312 76.2419 62.5466Q76.424 62.062 76.7086 61.616Q76.9932 61.1701 77.3558 60.801L77.356 60.8008Q77.7188 60.4315 78.1597 60.139Q79.7573 59.0794 81.2717 58.0254Q80.4421 57.8859 79.7433 57.5057Q78.903 57.0484 78.252 56.2431Q77.8635 55.7624 77.6093 55.2189Q77.3552 54.6755 77.2354 54.0692Q77.1385 53.5789 77.1385 53.0932Q77.1385 52.9783 77.1439 52.8636Q77.1723 52.2643 77.3488 51.672Q79.4934 44.4757 80.6577 37.1242Q80.6643 37.0825 80.6709 37.0409Q80.6862 36.9436 80.7014 36.8462Q80.828 36.0335 81.1835 35.3378Q81.539 34.6421 82.1233 34.0633Q82.7077 33.4845 83.4068 33.1358Q84.106 32.787 84.9198 32.6682Q85.6021 32.5687 86.2796 32.4931Q85.3245 32.405 84.5235 32.0068Q83.6696 31.5824 82.9909 30.8056Q82.3121 30.0288 82.006 29.1257Q81.7545 28.3838 81.7545 27.5567Q81.7545 27.377 81.7664 27.1932Q81.9836 23.8322 81.9836 20.5024Q81.9836 19.3258 81.9565 18.1531Q81.9377 18.0752 81.9212 17.9963Q81.8761 17.7798 81.6326 17.4381Q81.2103 16.8455 80.3896 16.1954Q79.4029 15.4137 77.9822 14.6703Q76.4545 13.8708 74.5332 13.1741Q70.4409 11.6902 65.1914 10.8682Q59.647 10 53.5944 10Q47.5364 10 41.9878 10.8697Q36.7345 11.693 32.6415 13.1792Q30.7201 13.8769 29.1933 14.6772Q27.7739 15.4213 26.7893 16.2032Q25.9713 16.8528 25.5519 17.4441Q25.3111 17.7836 25.2672 17.9977Q25.2488 18.0879 25.2272 18.1768ZM85.6418 37.6158C84.7421 43.3907 83.4802 48.6048 82.1405 53.1C87.3666 48.8758 95.7631 43.3228 95.7631 39.9398C95.7631 36.4163 88.0662 37.262 85.6418 37.6158Z" fill="rgb(245,185,142)" fill-opacity="0.5" fill-rule="evenodd" />
		<path id="Линия 41" d="M30.5 64C30.5 64 43 70.5 54.5 70.5C66 70.5 78 65 78 65" stroke="rgb(242,212,190)" stroke-width="5" />
		<path id="Линия 42" d="M23 18C23 18 39.3157 25 54.3263 25C69.3368 25 84 19.5 84 19.5" stroke="rgb(242,212,190)" stroke-width="5" />
	</g>
</svg>
