<svg viewBox="0 0 110 110" xmlns="http://www.w3.org/2000/svg" xmlns:xlink="http://www.w3.org/1999/xlink" width="110.000000" height="110.000000" fill="none" customFrame="#000000">
	<path id="Слияние" d="M39.0899 8.43249C40.3213 3.58547 44.7139 0 49.944 0C56.1286 0 61.1422 5.01361 61.1422 11.1982C61.1422 11.6893 61.1106 12.2768 61.0493 12.9424C61.37 12.3405 61.672 11.8226 61.9466 11.4058C65.3488 6.24102 72.2936 4.81217 77.4584 8.21433C80.7255 10.3665 82.4977 13.9363 82.4977 17.5763C82.4977 18.3088 82.4259 19.0441 82.2801 19.7712C86.6825 19.1859 91.1992 21.2686 93.5141 25.3736C94.4945 27.1121 94.9602 29.0009 94.9602 30.8639C94.9602 33.9218 93.7057 36.9104 91.4138 39.0521C96.3385 40.2287 100 44.6588 100 49.944C100 56.1286 94.9864 61.1422 88.8018 61.1422C88.3107 61.1422 87.7231 61.1106 87.0576 61.0493C87.6594 61.37 88.1774 61.672 88.5942 61.9466C91.8614 64.0988 93.6335 67.6686 93.6335 71.3086C93.6335 73.4228 93.0357 75.5608 91.7857 77.4584C89.1949 81.3913 84.5498 83.1579 80.2007 82.2745C80.2657 82.7636 80.2978 83.2541 80.2978 83.7429C80.2978 87.6529 78.2467 91.4498 74.5982 93.5073C69.9771 96.1132 64.2943 95.0824 60.8542 91.3362C59.7057 96.3 55.257 100 49.944 100C43.7594 100 38.7458 94.9864 38.7458 88.8018C38.7458 88.3027 38.7785 87.7039 38.8418 87.0249C38.5268 87.6145 38.23 88.1225 37.9599 88.5326C34.5577 93.6974 27.6129 95.1262 22.4481 91.7241C19.181 89.5719 17.4088 86.0021 17.4088 82.3621C17.4088 81.6059 17.4853 80.8467 17.6407 80.0966C13.2392 80.6807 8.72394 78.598 6.40953 74.4938C5.42916 72.7553 4.9635 70.8666 4.9635 69.0035C4.9635 65.9464 6.21729 62.9585 8.50814 60.817C3.62282 59.6124 0 55.2013 0 49.944C0 43.7594 5.01361 38.7458 11.1982 38.7458C11.6973 38.7458 12.2961 38.7785 12.9751 38.8418C12.3855 38.5268 11.8775 38.23 11.4674 37.9599C8.20024 35.8077 6.42807 32.2379 6.42807 28.5979C6.42807 26.4837 7.02592 24.3457 8.27594 22.4481C10.8696 18.5108 15.5222 16.7446 19.8754 17.635C19.8104 17.146 19.7784 16.6557 19.7784 16.1671C19.7784 12.2571 21.8294 8.46021 25.478 6.4027C30.0405 3.82983 35.6378 4.80199 39.0899 8.43249ZM43.7162 10.33L43.7161 10.3301Q43.5833 10.6538 43.4048 10.9588Q43.2262 11.2638 43.0089 11.5381L43.0088 11.5381Q42.7915 11.8124 42.5354 12.0559Q41.7849 12.7695 40.8921 13.1132Q39.9993 13.457 38.9641 13.4309Q37.9289 13.4048 37.0545 13.0166Q36.1801 12.6283 35.4665 11.8779Q35.1514 11.5465 34.7948 11.2684Q34.3517 10.9228 33.8444 10.6595Q33.4095 10.4337 32.9504 10.2799L32.9501 10.2798L32.9499 10.2797Q32.4532 10.1134 31.9283 10.0314Q31.345 9.94021 30.7654 9.95947L30.7653 9.95948Q30.3355 9.97377 29.9077 10.0488Q29.54 10.1132 29.1855 10.2208L29.1845 10.2211Q28.5374 10.4177 27.934 10.7579Q27.3581 11.0827 26.8728 11.5103L26.8725 11.5105Q26.6484 11.7079 26.4437 11.9273Q26.1783 12.2115 25.9526 12.5244Q25.6454 12.9502 25.4118 13.429Q25.218 13.8262 25.083 14.2424Q24.9379 14.6896 24.8608 15.1589Q24.7781 15.6629 24.7781 16.166Q24.7781 16.1882 24.7782 16.2103L24.7783 16.2227L24.7783 16.2229L24.7783 16.2229Q24.7818 16.6 24.8319 16.9767Q24.8594 17.1839 24.8695 17.392L24.8695 17.3921L24.8696 17.3938Q24.8754 17.5139 24.8754 17.6344Q24.8754 17.7217 24.8723 17.8092Q24.8651 18.0179 24.8405 18.2246L24.8405 18.225Q24.8159 18.4319 24.774 18.6368Q24.5665 19.6514 24.0307 20.444Q23.4949 21.2366 22.6308 21.8072Q21.7667 22.3779 20.8274 22.5595Q19.888 22.741 18.8735 22.5336Q18.501 22.4574 18.1248 22.4276L18.1246 22.4276Q17.5945 22.3857 17.057 22.436Q16.5836 22.4803 16.1275 22.5938L16.1273 22.5939L16.1272 22.5939L16.1256 22.5943Q15.7014 22.7001 15.2921 22.8658Q14.7979 23.0658 14.3515 23.343Q14.0236 23.5466 13.7216 23.7918Q13.4881 23.9813 13.2753 24.1916L13.2753 24.1917Q12.8152 24.6464 12.4514 25.1986Q12.0365 25.8285 11.7887 26.5184L11.7885 26.5192L11.7885 26.5192Q11.6211 26.9854 11.5301 27.4789Q11.4329 28.0062 11.4273 28.5344L11.4273 28.5345Q11.4269 28.5669 11.4269 28.5994Q11.4269 29.2277 11.5565 29.8573Q11.6927 30.5195 11.96 31.1238L11.96 31.1238Q12.1737 31.6069 12.4712 32.053Q12.7496 32.4705 13.0874 32.8327L13.0874 32.8328Q13.5877 33.3692 14.2179 33.7844Q14.6401 34.0625 15.331 34.4316Q15.9969 34.7873 16.5087 35.2976Q17.0205 35.8079 17.3782 36.4727Q17.7359 37.1376 17.8797 37.8458Q17.9764 38.3221 17.9764 38.818Q17.9764 39.0595 17.9535 39.3058Q17.8574 40.3369 17.4108 41.183Q16.9642 42.029 16.1672 42.6902Q15.3702 43.3513 14.4561 43.6338Q13.5421 43.9163 12.511 43.8202Q11.7132 43.7458 11.1982 43.7458Q10.4435 43.7458 9.73064 43.9186L9.7293 43.919Q9.24868 44.0356 8.78712 44.2308Q8.29327 44.4397 7.849 44.7256L7.84787 44.7264Q7.29294 45.0837 6.81541 45.5612Q6.33749 46.0391 5.98 46.5946L5.97994 46.5946L5.97989 46.5947Q5.69393 47.039 5.48503 47.5329Q5.28948 47.9953 5.17277 48.4767Q5 49.1894 5 49.944Q5 50.6374 5.14692 51.2981L5.14738 51.3002L5.1475 51.3007Q5.22859 51.6646 5.35426 52.0186Q5.5001 52.4294 5.70015 52.8118L5.70027 52.812L5.70041 52.8123Q5.97016 53.3279 6.33843 53.7918Q6.67076 54.2106 7.06316 54.5623L7.06328 54.5624Q7.42436 54.886 7.83629 55.1528Q8.31625 55.4638 8.83602 55.6782Q9.25751 55.852 9.70519 55.9624Q10.058 56.0494 10.3911 56.1848Q10.7242 56.3202 11.0376 56.504Q11.3511 56.6879 11.6319 56.9125Q11.9126 57.1371 12.1607 57.4025Q12.8679 58.159 13.204 59.0547Q13.5086 59.8663 13.5086 60.7921Q13.5086 60.8881 13.5053 60.9854Q13.4704 62.0203 13.0748 62.8914Q12.6791 63.7624 11.9226 64.4696Q11.5838 64.7863 11.2995 65.1461L11.2993 65.1464L11.2992 65.1465L11.299 65.1468Q10.9506 65.5878 10.684 66.0935Q10.455 66.5282 10.2982 66.9875Q10.1272 67.4883 10.0422 68.0183Q9.96292 68.5123 9.96292 69.0039Q9.96292 69.0879 9.96524 69.1718Q9.96546 69.1797 9.96569 69.1875L9.9657 69.1879Q9.97878 69.6207 10.0534 70.0515Q10.1178 70.4234 10.2263 70.7819L10.2265 70.7826Q10.4232 71.4321 10.7648 72.0378Q11.0894 72.6135 11.5167 73.0986L11.5171 73.099Q11.7146 73.3232 11.934 73.5281Q12.2184 73.7936 12.5315 74.0195Q12.9571 74.3264 13.4356 74.5599Q13.8326 74.7537 14.2487 74.8887L14.2488 74.8887Q14.696 75.0338 15.1653 75.1109Q15.6967 75.1983 16.2272 75.1935L16.2297 75.1935Q16.6066 75.19 16.983 75.1401Q17.1918 75.1123 17.4015 75.1023Q17.6112 75.0923 17.8217 75.0999Q18.0322 75.1075 18.2406 75.1327Q18.449 75.1579 18.6552 75.2006Q19.6691 75.4107 20.4604 75.9485Q21.2516 76.4864 21.8201 77.3519Q22.3885 78.2175 22.5677 79.1573L22.5677 79.1576Q22.6501 79.59 22.6501 80.0381Q22.6501 80.5638 22.5367 81.1111Q22.4594 81.4843 22.4287 81.8614Q22.4085 82.1093 22.4085 82.3588Q22.4085 82.644 22.4349 82.9313Q22.4781 83.4021 22.5898 83.856L22.5913 83.8624L22.5915 83.8631Q22.6969 84.2894 22.8629 84.7007Q23.0627 85.1961 23.3399 85.6435L23.3401 85.6438Q23.5438 85.9725 23.7893 86.2753Q23.979 86.5093 24.1896 86.7226L24.1905 86.7235L24.1906 86.7236Q24.6458 87.1844 25.1986 87.5486Q25.8289 87.9637 26.5192 88.2115Q26.9854 88.3789 27.4789 88.4699Q28.004 88.5667 28.53 88.5727L28.5343 88.5727L28.5361 88.5727Q29.196 88.5796 29.8574 88.4435Q30.5196 88.3073 31.1238 88.04Q31.6069 87.8263 32.053 87.5288Q32.4704 87.2505 32.8325 86.9128L32.8336 86.9118Q33.3696 86.4118 33.7844 85.7821Q34.0625 85.3599 34.4316 84.669Q34.7873 84.0032 35.2975 83.4914Q35.8078 82.9795 36.4727 82.6218Q37.1375 82.2641 37.8458 82.1203Q38.5541 81.9765 39.3058 82.0465Q40.3369 82.1426 41.1829 82.5892Q42.029 83.0358 42.6902 83.8328Q43.3512 84.6298 43.6338 85.5439Q43.8446 86.2259 43.8446 86.9731Q43.8446 87.2273 43.8202 87.489Q43.7458 88.2868 43.7458 88.8018Q43.7458 89.5563 43.9185 90.269Q44.0353 90.7505 44.2308 91.2129Q44.4399 91.707 44.726 92.1516L44.7261 92.1517Q45.0835 92.7069 45.5612 93.1846Q46.0376 93.661 46.5911 94.0178L46.5944 94.0199Q47.0388 94.306 47.5329 94.515Q47.9949 94.7104 48.476 94.8271L48.4764 94.8271L48.4766 94.8272Q49.1894 95 49.944 95Q50.642 95 51.3067 94.8512Q51.6781 94.768 52.0391 94.6384Q52.4541 94.4894 52.8399 94.2851L52.8404 94.2848L52.8406 94.2847Q53.3596 94.0098 53.8255 93.6347Q54.2492 93.2936 54.603 92.891L54.6033 92.8906Q54.9243 92.5252 55.1877 92.1093Q55.4937 91.6259 55.7027 91.1037L55.7028 91.1035L55.7029 91.1033Q55.8764 90.6696 55.9829 90.2091Q56.0681 89.8407 56.206 89.4931L56.2061 89.4927Q56.3439 89.1453 56.5343 88.8186Q56.7247 88.4918 56.9592 88.2005Q57.1937 87.9092 57.4723 87.6534Q58.2351 86.953 59.1337 86.6248Q60.0324 86.2967 61.067 86.3407Q62.1016 86.3848 62.9691 86.7882Q63.8366 87.1916 64.537 87.9543Q64.8556 88.3013 65.2189 88.5923L65.2194 88.5927Q65.6584 88.9442 66.1627 89.2141Q66.5967 89.4464 67.0561 89.6063L67.0567 89.6065Q67.5614 89.7822 68.0965 89.8704Q68.6859 89.9675 69.2722 89.9517L69.2731 89.9517L69.2734 89.9517Q69.7089 89.9398 70.1426 89.8657Q70.52 89.8012 70.8836 89.6914L70.8837 89.6913L70.884 89.6912Q71.5351 89.4944 72.1422 89.1521Q72.7177 88.8275 73.2028 88.4003L73.2036 88.3996Q73.4277 88.2021 73.6326 87.9827Q73.8981 87.6982 74.124 87.3851Q74.4309 86.9594 74.6645 86.4808Q74.8581 86.084 74.993 85.6682L74.9932 85.6678L74.9934 85.6672Q75.1383 85.22 75.2154 84.7508Q75.2981 84.2471 75.2981 83.744Q75.2981 83.716 75.2979 83.6881L75.2979 83.687Q75.2944 83.3098 75.2443 82.933Q75.2169 82.7266 75.2067 82.5195L75.2067 82.5193L75.2066 82.5164Q75.2007 82.3959 75.2007 82.2751Q75.2007 82.1894 75.2037 82.1036Q75.2108 81.8958 75.235 81.6899L75.2352 81.6887Q75.2594 81.4829 75.3008 81.2792Q75.507 80.2643 76.0417 79.471Q76.5765 78.6777 77.4398 78.1059Q78.3031 77.5341 79.2422 77.3513Q80.1813 77.1684 81.1961 77.3746Q81.5681 77.4501 81.9436 77.4794L81.9438 77.4794L81.9442 77.4795Q82.4738 77.5207 83.0106 77.4699Q83.4835 77.4252 83.9391 77.3114L83.9393 77.3113L83.9397 77.3112Q84.364 77.2052 84.7733 77.0392Q85.2671 76.8389 85.713 76.5617Q86.0402 76.3583 86.3416 76.1134Q86.5745 75.9242 86.7868 75.7143L86.7872 75.7139Q87.2468 75.2595 87.6102 74.7079Q88.0248 74.0784 88.2725 73.3889L88.2731 73.3872Q88.4405 72.9211 88.5315 72.4276Q88.6286 71.9006 88.6343 71.3726L88.6343 71.3723Q88.6347 71.3397 88.6347 71.3071Q88.6347 70.6788 88.5051 70.0491Q88.3689 69.3869 88.1016 68.7827L88.1015 68.7826Q87.8878 68.2995 87.5904 67.8535Q87.3122 67.4364 86.9748 67.0744L86.9745 67.0741Q86.4742 66.5374 85.8437 66.1221Q85.4137 65.8388 84.7065 65.462Q84.0402 65.107 83.5278 64.5973Q83.0155 64.0876 82.657 63.4231Q82.2986 62.7587 82.154 62.0505L82.154 62.0504Q82.0563 61.5717 82.0563 61.073Q82.0563 60.8341 82.0787 60.5907Q82.1737 59.5595 82.6193 58.7129Q83.065 57.8663 83.8613 57.2044Q84.6576 56.5424 85.5713 56.2589Q86.4851 55.9754 87.5162 56.0704Q88.2962 56.1422 88.8018 56.1422Q89.5549 56.1422 90.2664 55.9701L90.2693 55.9694Q90.7507 55.8527 91.2129 55.6572Q91.7068 55.4483 92.1511 55.1623Q92.7066 54.8048 93.1846 54.3268Q93.6625 53.8489 94.02 53.2935L94.0201 53.2933L94.0202 53.2931Q94.3061 52.8489 94.515 52.3551Q94.7105 51.8929 94.8272 51.4116L94.8279 51.4084Q95 50.697 95 49.944Q95 49.2477 94.8519 48.5846Q94.7698 48.2168 94.6421 47.8591Q94.4946 47.4461 94.2924 47.062L94.2922 47.0616L94.2922 47.0615L94.2921 47.0613Q94.0197 46.5442 93.6481 46.0793Q93.3114 45.6581 92.914 45.3054L92.9139 45.3053Q92.5506 44.9828 92.1364 44.7176Q91.6548 44.4092 91.1338 44.1975L91.1336 44.1974Q90.706 44.0237 90.2518 43.9152Q89.8939 43.8296 89.5558 43.6944L89.5554 43.6942Q89.2175 43.5589 88.8994 43.3739Q88.5814 43.1888 88.2967 42.9619L88.2966 42.9618Q88.0118 42.7347 87.7605 42.4658Q87.0535 41.7091 86.7175 40.8133Q86.4133 40.0023 86.4133 39.0771Q86.4133 38.9805 86.4167 38.8826Q86.4517 37.8477 86.8476 36.9767Q87.2435 36.1058 88.0001 35.3987Q88.3392 35.0819 88.6237 34.7219L88.6238 34.7218Q88.9724 34.2807 89.2392 33.7748Q89.4683 33.3402 89.6251 32.881L89.6252 32.8808L89.6259 32.8787Q89.7964 32.3788 89.8814 31.8497Q89.9607 31.3554 89.9607 30.8635Q89.9607 30.7857 89.9587 30.7078Q89.9584 30.6939 89.958 30.68Q89.9449 30.2472 89.8703 29.8163Q89.8059 29.4443 89.6974 29.0857L89.6973 29.0854L89.6973 29.0853Q89.5006 28.4355 89.1589 27.8297Q88.8341 27.2537 88.4064 26.7683Q88.2089 26.544 87.9894 26.3391Q87.705 26.0736 87.3919 25.8479L87.3918 25.8478L87.3915 25.8475Q86.9659 25.5407 86.4874 25.3072Q86.0931 25.1148 85.68 24.9804L85.6736 24.9783Q85.2264 24.8334 84.7572 24.7563Q84.2246 24.6689 83.6929 24.674L83.6926 24.674Q83.3156 24.6775 82.9391 24.7276Q82.734 24.7549 82.528 24.7651Q82.3223 24.7753 82.1159 24.7685Q81.9098 24.7617 81.7057 24.7381L81.705 24.7381Q81.5002 24.7144 81.2974 24.6737Q80.2821 24.4702 79.4874 23.9375Q78.6927 23.4048 78.1187 22.5429Q77.5446 21.681 77.3594 20.7424Q77.2711 20.2952 77.2711 19.8305Q77.2711 19.32 77.3777 18.7885Q77.452 18.4175 77.4804 18.0429L77.4805 18.0426L77.4813 18.0312Q77.4979 17.8059 77.4979 17.5794Q77.4979 17.2796 77.4688 16.9777Q77.4232 16.5046 77.3084 16.0488L77.3082 16.0484Q77.2019 15.6264 77.0362 15.2194Q76.8359 14.7272 76.559 14.2827L76.5589 14.2825Q76.3555 13.956 76.1109 13.6553Q75.9225 13.4237 75.7136 13.2124Q75.2593 12.7531 74.7078 12.3898Q74.0776 11.9747 73.3873 11.7269Q72.9211 11.5595 72.4275 11.4685Q71.9006 11.3713 71.3726 11.3657L71.3721 11.3657L71.3719 11.3657L71.3717 11.3657Q70.7112 11.3587 70.0491 11.4949Q69.387 11.6311 68.7827 11.8984Q68.2996 12.1121 67.8535 12.4096Q67.4362 12.6879 67.0741 13.0254L67.0738 13.0257Q66.5373 13.5259 66.1221 14.1563Q65.8388 14.5864 65.462 15.2935Q65.107 15.9597 64.5973 16.4721Q64.0876 16.9845 63.4231 17.3429Q62.7587 17.7013 62.0506 17.8459Q61.3425 17.9905 60.5907 17.9213Q59.5595 17.8263 58.7129 17.3806Q57.8663 16.935 57.2044 16.1387Q56.5424 15.3424 56.2589 14.4286Q56.0465 13.7442 56.0465 12.9939Q56.0465 12.7425 56.0704 12.4837Q56.1422 11.7038 56.1422 11.1982Q56.1422 10.4436 55.9694 9.73086L55.9694 9.73079L55.9694 9.7307Q55.8527 9.24936 55.6572 8.78712Q55.4483 8.29324 55.1623 7.84895L55.1619 7.84823Q54.8045 7.2931 54.3268 6.81541Q53.8492 6.33776 53.2941 5.98038L53.2933 5.97988Q52.849 5.69393 52.3551 5.48503Q51.8929 5.28954 51.4116 5.17284L51.4113 5.17277Q50.6986 5 49.944 5Q49.2517 5 48.592 5.14647L48.5911 5.14667L48.591 5.14669L48.5907 5.14675Q48.2302 5.22687 47.8794 5.35072Q47.4706 5.49506 47.0897 5.69311L47.0896 5.69317L47.0895 5.69322Q46.5757 5.96043 46.1127 6.3254Q45.6964 6.65349 45.3458 7.04096L45.3457 7.04103L45.3456 7.04116Q45.0209 7.40005 44.7524 7.80987Q44.4392 8.28797 44.2222 8.80633L44.2221 8.80648Q44.0482 9.22208 43.936 9.66356Q43.849 10.0062 43.7162 10.33ZM49.8929 33.0149Q49.9993 32.857 50.1104 32.6804Q50.4603 32.1243 50.9244 31.6901L50.9244 31.6901Q51.3885 31.2559 51.9668 30.9437Q52.545 30.6315 53.1626 30.4816Q53.7803 30.3318 54.4372 30.3442Q55.4726 30.3639 56.3494 30.7468Q57.2261 31.1296 57.9443 31.8756Q58.6625 32.6216 59.0118 33.5123Q59.3424 34.3555 59.3424 35.3283Q59.3424 35.3831 59.3414 35.4383Q59.3389 35.5685 59.3389 35.6915Q59.3389 35.8011 59.3409 35.9049Q59.5881 35.8885 59.8381 35.8967Q60.2126 35.9089 60.577 35.9758L60.5771 35.9758L60.5772 35.9759Q60.9416 36.0427 61.296 36.1642Q62.2756 36.5 62.993 37.133Q63.7104 37.766 64.1656 38.6961Q64.6208 39.6262 64.6805 40.581Q64.6895 40.7252 64.6895 40.8699Q64.6895 41.2222 64.6361 41.5778Q64.8513 41.6324 65.0599 41.7057L65.0603 41.7059Q65.5031 41.8616 65.9162 42.102Q66.3292 42.3424 66.6833 42.6505L66.6835 42.6507Q67.0378 42.9589 67.3331 43.3349Q67.9727 44.1492 68.2308 45.0705Q68.4053 45.6935 68.4053 46.3654Q68.4053 46.687 68.3653 47.0199Q68.2418 48.048 67.7728 48.8819Q67.462 49.4347 66.9994 49.902Q67.152 50.0049 67.3196 50.1104Q67.8758 50.4604 68.31 50.9245Q68.7441 51.3886 69.0563 51.9668Q69.3685 52.545 69.5184 53.1626L69.5184 53.1627Q69.6567 53.7328 69.6567 54.3365Q69.6567 54.3867 69.6558 54.4373Q69.6361 55.4726 69.2533 56.3494Q68.8704 57.2261 68.1244 57.9443Q67.3784 58.6625 66.4877 59.0118Q65.597 59.361 64.5617 59.3414Q64.3178 59.3367 64.0958 59.3414Q64.1069 59.5077 64.1069 59.6752Q64.1069 59.7616 64.1039 59.8484Q64.091 60.2252 64.0229 60.5917Q63.9548 60.9582 63.8314 61.3143Q63.4925 62.2928 62.8572 63.0082Q62.222 63.7235 61.2904 64.1758Q60.3588 64.628 59.4038 64.6846Q58.906 64.7142 58.4018 64.6362Q58.3428 64.8883 58.2583 65.1316L58.258 65.1325L58.2579 65.1327Q58.1003 65.5862 57.8539 66.0088Q57.6075 66.4316 57.2904 66.7923Q56.9733 67.1529 56.5857 67.4516Q55.7654 68.0835 54.8417 68.3329Q53.9181 68.5823 52.8912 68.4491Q51.8643 68.3159 51.0348 67.8391Q50.4588 67.508 49.978 67.0112Q49.8854 67.149 49.7905 67.2991Q49.4395 67.8547 48.9746 68.288Q48.5097 68.7213 47.9309 69.0325Q47.3521 69.3436 46.7342 69.4923Q46.1163 69.641 45.4594 69.6274Q44.4241 69.6058 43.548 69.2213Q42.6719 68.8369 41.9551 68.0895Q41.2383 67.3422 40.8907 66.4509Q40.5634 65.6117 40.5634 64.6448Q40.5634 64.5848 40.5646 64.5243Q40.5674 64.3909 40.5674 64.2639Q40.5674 64.1469 40.5651 64.0352Q40.3053 64.0529 40.0424 64.0433Q39.6622 64.0295 39.2928 63.9595L39.2927 63.9595Q38.9232 63.8895 38.5644 63.7633Q37.5876 63.4196 36.8753 62.7809Q36.163 62.1423 35.7152 61.2085Q35.2675 60.2748 35.2154 59.3195Q35.2086 59.1938 35.2086 59.0678Q35.2086 58.6742 35.2754 58.2769Q35.0979 58.228 34.925 58.1662L34.9248 58.1661Q34.4874 58.0098 34.0796 57.7707Q33.6719 57.5317 33.3219 57.2265L33.3218 57.2264Q32.9717 56.9212 32.6794 56.5497Q32.0389 55.736 31.7799 54.815Q31.6041 54.1898 31.6041 53.5151Q31.6041 53.196 31.6435 52.8658Q31.766 51.8375 32.2341 51.0032Q32.5429 50.4527 33.0021 49.9866Q32.8591 49.8905 32.7009 49.7905Q32.1453 49.4395 31.712 48.9746Q31.2787 48.5097 30.9675 47.9309Q30.6564 47.3521 30.5077 46.7342Q30.3715 46.1684 30.3715 45.5699Q30.3715 45.5147 30.3726 45.4594Q30.3942 44.424 30.7787 43.548Q31.1631 42.6719 31.9104 41.9551Q32.6578 41.2383 33.5491 40.8907Q34.4404 40.5431 35.4757 40.5646Q35.7345 40.57 35.9655 40.5656Q35.9542 40.3983 35.9542 40.2297Q35.9542 40.1414 35.9573 40.0527Q35.9705 39.6748 36.0393 39.3073Q36.1081 38.9398 36.2324 38.5827Q36.573 37.6047 37.2094 36.8904Q37.8458 36.1761 38.7782 35.7254Q39.7105 35.2747 40.6656 35.2197Q41.1817 35.1899 41.7045 35.2757Q41.7463 35.1339 41.7964 34.9951L41.7971 34.9933Q41.9514 34.5668 42.1844 34.1688Q42.4174 33.7708 42.7137 33.4275L42.7138 33.4274Q43.0101 33.0841 43.3698 32.7954Q44.1774 32.1472 45.0959 31.8795Q46.0144 31.6118 47.0437 31.7245Q48.073 31.8372 48.9118 32.2974Q49.4402 32.5872 49.8929 33.0149ZM55.6404 40.3008C54.7208 39.3714 54.3391 37.7281 54.3391 35.6724C54.3391 35.5638 54.3402 35.4541 54.3423 35.3433C53.1948 37.1669 51.9487 38.4292 50.6421 38.7672C52.4595 38.879 54.1596 39.4242 55.6404 40.3008ZM49.2459 38.7672C48.2933 38.5208 47.3729 37.7831 46.4994 36.6948C46.2714 38.0663 45.8308 39.1558 45.1217 39.8344C46.3838 39.2313 47.7766 38.8576 49.2459 38.7672ZM40.9543 40.227C41.1258 40.858 41.2179 41.4496 41.2179 41.9914C41.2179 42.403 41.1647 42.7858 41.0528 43.1352C41.841 42.1075 42.8034 41.2204 43.8958 40.518C43.0603 40.7355 42.0615 40.6126 40.9543 40.227ZM59.6746 40.894C58.4771 41.2188 57.4215 41.2575 56.5794 40.9225C57.7446 41.781 58.7375 42.8598 59.4966 44.0974C59.3577 43.7345 59.2919 43.336 59.2919 42.9071C59.2919 42.2931 59.4267 41.6169 59.6746 40.894ZM55.3552 46.9001Q55.2934 46.8077 55.2345 46.7116Q54.9253 46.2075 54.5346 45.7774L54.5344 45.7772Q54.1199 45.3209 53.6137 44.948Q53.4872 44.8548 53.3684 44.7562Q53.2302 44.6845 53.0933 44.6034Q52.4794 44.24 51.8169 44.0305L51.8151 44.0299Q51.1032 43.805 50.3351 43.7578Q50.1382 43.7457 49.9468 43.7198Q49.7531 43.7455 49.5529 43.7578Q48.8936 43.7983 48.2716 43.972L48.2714 43.972L48.2713 43.9721Q47.7619 44.1143 47.2775 44.3458Q47.1011 44.4301 46.9228 44.5Q46.7674 44.616 46.6 44.7237Q46.1573 45.0083 45.7735 45.3575L45.7734 45.3577Q45.3633 45.7309 45.0203 46.1781Q44.89 46.348 44.7497 46.5036Q44.6593 46.6949 44.5515 46.8841Q44.2143 47.4762 44.0181 48.1117Q43.8037 48.8063 43.7578 49.5529Q43.7457 49.7498 43.7198 49.9412Q43.7455 50.1349 43.7578 50.3351Q43.7995 51.0133 43.9817 51.6514Q44.1355 52.1899 44.3894 52.6999Q44.4617 52.8451 44.5241 52.9916Q44.6182 53.1224 44.7066 53.2614Q45.0272 53.7656 45.4294 54.1928L45.4295 54.1929Q45.8472 54.6365 46.3531 54.9971Q46.4489 55.0655 46.5405 55.1368Q46.6429 55.1931 46.7446 55.2546Q47.1492 55.4993 47.5812 55.6776L47.582 55.6779Q47.9085 55.8126 48.2506 55.9094Q48.4749 55.9728 48.7028 56.019Q49.3109 56.1422 49.944 56.1422L49.9463 56.1422Q50.8283 56.1419 51.6443 55.9098L51.6444 55.9098L51.6445 55.9098L51.646 55.9094Q52.3316 55.7141 52.9707 55.3553Q52.9926 55.343 53.0145 55.3309Q53.036 55.3181 53.0577 55.3055Q53.3569 55.131 53.6334 54.9258L53.6336 54.9256L53.6338 54.9255Q53.9964 54.6562 54.3197 54.334Q54.6424 54.0123 54.9125 53.6512L54.9131 53.6504Q55.1196 53.3743 55.2953 53.0751Q55.5278 52.6794 55.6974 52.2583L55.6974 52.2582Q55.8271 51.9363 55.92 51.5995Q55.9781 51.3889 56.021 51.1752L56.0211 51.175L56.0212 51.1741Q56.1417 50.5737 56.1422 49.9491L56.1422 49.944Q56.1422 49.1017 55.9295 48.317L55.9295 48.3168Q55.7593 47.6893 55.4532 47.0988Q55.4019 46.9997 55.3552 46.9001ZM40.207 44.4093C39.1973 45.2756 37.4837 45.6076 35.3716 45.5635C37.1799 46.7061 38.431 47.946 38.7672 49.2459C38.8749 47.4943 39.3853 45.8516 40.207 44.4093ZM61.1422 49.944C61.1422 48.7141 61.9915 47.5305 63.401 46.4234C61.8065 46.1837 60.5728 45.6696 59.8923 44.7978C60.691 46.3386 61.1422 48.0886 61.1422 49.944ZM59.1068 59.6778C58.9357 59.0474 58.8437 58.4564 58.8437 57.9151C58.8437 57.213 58.9984 56.5946 59.3356 56.0826C60.1907 54.7845 62.1381 54.2944 64.6567 54.3423C62.5127 52.9932 61.1446 51.5079 61.1422 49.9481C61.1408 54.0777 58.9039 57.6848 55.576 59.625C56.5117 59.1309 57.7245 59.1989 59.1068 59.6778ZM38.7672 50.6421C38.5143 51.6197 37.744 52.5634 36.6083 53.4573C38.074 53.6886 39.2267 54.1568 39.9135 54.9284C39.264 53.6238 38.8615 52.1746 38.7672 50.6421ZM40.4872 55.9441C40.585 56.2592 40.6317 56.599 40.6317 56.9603C40.6317 57.595 40.4877 58.2961 40.2237 59.0466C41.4839 58.7037 42.5873 58.6769 43.4505 59.0684C42.2729 58.2288 41.2647 57.167 40.4872 55.9441ZM44.157 59.5329C45.1556 60.4405 45.5674 62.1308 45.5674 64.266C45.5674 64.3855 45.5661 64.5063 45.5635 64.6284C46.909 62.4989 48.3895 61.1422 49.944 61.1422C47.8263 61.1422 45.8458 60.5544 44.157 59.5329ZM53.5343 63.4906C53.7883 61.7043 54.3783 60.358 55.4187 59.715C53.8011 60.6233 51.9351 61.1415 49.9481 61.1422C51.2024 61.1441 52.4085 62.0292 53.5343 63.4906Z" fill="rgb(250,218,221)" fill-opacity="0.5" fill-rule="evenodd" transform="matrix(-1,0,0,1,105,5)" />
</svg>
