<svg viewBox="0 0 110 101.896" xmlns="http://www.w3.org/2000/svg" xmlns:xlink="http://www.w3.org/1999/xlink" width="110.000061" height="101.896301" fill="none" customFrame="#000000">
	<path id="Слияние" d="M50 25C50 11.1929 61.1929 0 75 0C88.8072 0 100 11.1929 100 25C98.3216 51.2243 64.2492 81.6737 53.3334 90.7894C51.4369 92.3731 48.6797 92.2388 46.9215 90.5028C38.69 82.3753 16.0836 59.2847 5.54445 40.7982C5.41722 40.5751 5.27347 40.3618 5.11758 40.1576C1.91639 35.965 0.011233 30.7298 9.48855e-05 25.0501C3.16776e-05 25.0334 0 25.0166 0 24.9999L4.57995e-05 24.9999C0.000123777 11.1928 11.193 0 25 0C38.8072 0 50 11.1929 50 25ZM45 25Q45 23.4164 44.7575 21.8709L44.7568 21.8664Q44.6856 21.4136 44.5936 20.964Q44.3939 19.9881 44.0991 19.0417L44.0989 19.0412L44.0988 19.0409Q43.8102 18.1146 43.4304 17.2166Q43.1234 16.4909 42.7613 15.7939Q42.233 14.7771 41.5873 13.8213Q41.1014 13.102 40.5574 12.4298L40.5571 12.4294L40.557 12.4292L40.5568 12.429L40.5566 12.4287Q39.8926 11.6083 39.1422 10.8579Q38.3938 10.1095 37.5757 9.44705L37.5711 9.44327Q36.8984 8.89893 36.1787 8.41272Q35.2237 7.76749 34.2077 7.23952L34.2076 7.23947L34.2072 7.23926Q33.5097 6.87682 32.7834 6.56965Q31.8848 6.18955 30.9577 5.90075L30.9576 5.90072L30.9572 5.90059L30.9535 5.89945Q30.0095 5.60561 29.036 5.4064Q28.5868 5.31448 28.1343 5.24334Q26.5863 5 25 5Q23.4138 5 21.8657 5.24335L21.8656 5.24338L21.8639 5.24364L21.8635 5.2437Q21.4122 5.31471 20.9641 5.4064Q19.9885 5.60603 19.0426 5.90069Q18.1154 6.18951 17.2167 6.56964Q16.4904 6.87682 15.7929 7.23928Q14.7767 7.76733 13.8214 8.4127Q13.1018 8.89882 12.4293 9.44304Q11.6086 10.1072 10.8579 10.8578Q10.1073 11.6085 9.44319 12.4291Q8.89894 13.1017 8.41281 13.8212Q7.76733 14.7767 7.2392 15.7931L7.23918 15.7931Q6.87683 16.4905 6.56972 17.2166Q6.1896 18.1153 5.90078 19.0424Q5.6061 19.9884 5.40647 20.9639Q5.31465 21.4126 5.24358 21.8645L5.24342 21.8655Q5.00005 23.4136 5.00005 24.9999L5.00003 25.0119L5.00009 25.0403Q5.00407 27.0742 5.40341 29.0272L5.40345 29.0274L5.40348 29.0275Q5.66282 30.2958 6.08887 31.5299Q6.55717 32.8865 7.20774 34.1491L7.20778 34.1492L7.20786 34.1494Q8.01091 35.7079 9.09164 37.1233Q9.53856 37.7087 9.88816 38.3219Q13.4084 44.4967 19.2741 52.1888Q24.2905 58.767 30.8538 66.2342Q36.1026 72.2058 42.0782 78.4505Q46.2352 82.7947 50.2979 86.81Q52.6504 84.841 55.0856 82.6806Q58.3763 79.7613 61.539 76.7378Q69.8196 68.8216 76.3002 61.0969Q84.4526 51.3794 89.1333 42.6899Q91.7466 37.8385 93.2145 33.4093Q94.7176 28.8742 94.9994 24.8421Q94.9879 23.3357 94.7564 21.8638L94.7561 21.8622L94.7559 21.8608Q94.6851 21.4108 94.5936 20.964Q94.3938 19.9874 94.0987 19.0404Q93.8101 18.1143 93.4304 17.2166Q93.1281 16.5019 92.7722 15.815L92.7612 15.7937L92.7611 15.7935L92.761 15.7933Q92.2328 14.7768 91.5873 13.8213Q91.1015 13.1022 90.5576 12.43L90.5572 12.4294L90.557 12.4293Q89.8929 11.6086 89.1422 10.8579Q88.3911 10.1068 87.5699 9.44233Q86.8978 8.89851 86.1787 8.41272Q85.2296 7.77148 84.2202 7.24601L84.2054 7.23834Q83.5087 6.87643 82.7834 6.56965Q81.8847 6.18953 80.9576 5.90072Q80.0116 5.60604 79.036 5.4064Q78.5868 5.31449 78.1344 5.24336L78.1341 5.24332L78.134 5.24329Q76.5861 5 75 5Q73.4134 5 71.8651 5.24346L71.8646 5.24354L71.8609 5.24412L71.8571 5.24471Q71.409 5.31536 70.964 5.40641Q69.9891 5.60592 69.0437 5.90036Q68.1159 6.18929 67.2167 6.56965Q66.4914 6.8764 65.7948 7.23826L65.7947 7.23836L65.7943 7.23854Q64.7773 7.76689 63.8213 8.41273Q63.102 8.89867 62.4297 9.44269L62.4296 9.44278L62.4294 9.44299Q61.6086 10.1072 60.8579 10.8579Q60.1078 11.608 59.4441 12.428L59.4438 12.4283Q58.8992 13.1013 58.4128 13.8213Q57.7693 14.7737 57.2425 15.7868L57.2389 15.7936Q56.8767 16.4908 56.5697 17.2166Q56.1898 18.1148 55.9011 19.0413L55.901 19.0418L55.9009 19.0422Q55.6061 19.9883 55.4065 20.964Q55.3145 21.4136 55.2433 21.8664L55.2426 21.8709Q55 23.4164 55 25Q55 26.0355 54.6339 26.9194Q54.2678 27.8033 53.5356 28.5355Q52.8033 29.2678 51.9195 29.6339Q51.0356 30 50 30Q48.9645 30 48.0806 29.6339Q47.1967 29.2678 46.4645 28.5355Q45.7323 27.8033 45.3662 26.9194Q45 26.0355 45 25Z" fill="rgb(250,218,221)" fill-opacity="0.5" fill-rule="evenodd" transform="matrix(-1,0,0,1,105,5)" />
</svg>
