<svg viewBox="0 0 68 110" xmlns="http://www.w3.org/2000/svg" xmlns:xlink="http://www.w3.org/1999/xlink" width="68.000000" height="110.000015" fill="none" customFrame="#000000">
	<path id="Убрать верхний слой" d="M0 50C2.66859e-06 22.3858 22.3858 0 50 0C51.9237 0 53.8219 0.108632 55.689 0.320097C56.7597 0.441355 57.3025 1.27597 57.3025 2.15848C57.3025 2.95099 56.8648 3.78211 55.9783 4.16993C38.3308 11.8904 26 29.5052 26 50C26 70.4948 38.3308 88.1096 55.9783 95.8301C56.8648 96.2179 57.3025 97.049 57.3025 97.8415C57.3025 98.724 56.7597 99.5586 55.689 99.6799C53.8219 99.8914 51.9236 100 50 100C22.3858 100 2.66859e-06 77.6142 0 50ZM43.7723 5.42652Q43.7118 5.4349 43.6513 5.44344L43.6434 5.44455Q43.4339 5.47416 43.2247 5.50575L43.2237 5.50591L43.2207 5.50637Q42.0686 5.68043 40.9256 5.91432Q38.731 6.3634 36.6029 7.02604Q34.5121 7.67708 32.4855 8.53427Q30.8096 9.24313 29.2018 10.0826L29.2016 10.0827Q26.9561 11.2551 24.8436 12.6823Q23.2057 13.7889 21.6763 15.0292L21.676 15.0294L21.676 15.0294L21.6756 15.0297L21.6756 15.0297Q19.8507 16.5097 18.1802 18.1802Q16.51 19.8504 15.0302 21.6749L15.0302 21.675L15.0301 21.6751Q13.7893 23.205 12.6823 24.8436Q11.2554 26.9558 10.083 29.2009Q9.24333 30.8091 8.53428 32.4855Q7.677 34.5123 7.02592 36.6033L7.0257 36.6041Q6.36328 38.7316 5.91432 40.9256Q5.68013 42.0701 5.50593 43.2236L5.50573 43.2249Q5.00001 46.5743 5.00001 50L5.00001 50.0001Q5.00001 53.4258 5.50575 56.7752Q5.68001 57.9293 5.91432 59.0744Q6.3633 61.2685 7.02577 63.3962L7.02587 63.3965L7.02607 63.3971L7.02632 63.398Q7.67727 65.4883 8.53427 67.5145Q9.23599 69.1736 10.0657 70.7659L10.082 70.7971L10.0823 70.7977Q11.2549 73.0436 12.6823 75.1564Q13.7885 76.7938 15.0284 78.3228Q16.509 80.1486 18.1802 81.8198Q19.8505 83.4901 21.6753 84.9701L21.6755 84.9702Q23.2052 86.2108 24.8436 87.3177Q26.9548 88.744 29.199 89.9159Q30.8081 90.7562 32.4855 91.4657Q34.5115 92.3227 36.6017 92.9736L36.6021 92.9737L36.6127 92.977Q38.7361 93.6376 40.9256 94.0857Q42.0694 94.3197 43.2222 94.4939Q43.4972 94.5354 43.7723 94.5735Q42.1606 93.4064 40.6322 92.1218Q39.1554 90.8806 37.7719 89.5428L37.7716 89.5426L37.7704 89.5414L37.7695 89.5405Q36.3413 88.1594 35.0127 86.6755Q33.5397 85.0304 32.2069 83.2788L32.204 83.275L32.2026 83.2731Q31.1645 81.9086 30.2115 80.4795Q28.9054 78.521 27.7754 76.4657Q27.0059 75.0661 26.3179 73.6215Q25.3718 71.6348 24.5906 69.5852L24.5894 69.5821L24.5893 69.5819Q23.9514 67.9077 23.4235 66.1917Q22.9273 64.5788 22.5322 62.9415Q21.9762 60.6371 21.6205 58.2843Q21.5052 57.5219 21.4114 56.7569L21.4104 56.7488L21.4101 56.7467L21.4101 56.7466Q21 53.3984 21 50Q21 46.6022 21.41 43.2546L21.41 43.254L21.4109 43.2471Q21.5049 42.4801 21.6205 41.7157Q21.9761 39.3633 22.532 37.0593L22.5322 37.0585L22.5323 37.0583Q22.9273 35.4211 23.4235 33.8083Q23.9523 32.0892 24.5916 30.4122Q25.3724 28.3639 26.3179 26.3785Q27.0065 24.9326 27.7768 23.5317L27.7772 23.531L27.7778 23.53Q28.9068 21.477 30.2115 19.5205Q31.1637 18.0927 32.2007 16.7294L32.201 16.729Q33.5365 14.9732 35.0127 13.3245Q36.3447 11.8368 37.7766 10.4525L37.7774 10.4519L37.7783 10.451Q39.1588 9.11655 40.6322 7.87822Q42.1606 6.59367 43.7723 5.42652Z" fill="rgb(255,214,179)" fill-opacity="0.5" fill-rule="evenodd" transform="matrix(-1,0,0,1,63,5)" />
</svg>
