<svg viewBox="0 0 55 44.0001" xmlns="http://www.w3.org/2000/svg" xmlns:xlink="http://www.w3.org/1999/xlink" width="55.000000" height="44.000061" fill="none" customFrame="#000000">
	<g id="Сочетание 28">
		<path id="Стрелка 1" d="M0 -2.5L30 -2.5L30 2.5L0 2.5L0 -2.5ZM0.02 2.48L0 2.5C-1.4 2.5 -2.5 1.4 -2.5 -0C-2.5 -1.4 -1.4 -2.5 0 -2.5L0.02 -2.48L0.02 2.48ZM26.4645 0L14.0901 -12.3744C13.1001 -13.3643 13.1001 -14.92 14.0901 -15.9099C15.08 -16.8999 16.6357 -16.8999 17.6256 -15.9099L31.7678 -1.76777C32.7577 -0.777817 32.7577 0.777817 31.7678 1.76777L17.6256 15.9099C16.6357 16.8999 15.08 16.8999 14.0901 15.9099C13.1001 14.92 13.1001 13.3643 14.0901 12.3744L26.4645 0Z" fill="rgb(176,134,104)" fill-rule="nonzero" transform="matrix(0,1,-1,0,27.5,2.5)" />
		<g id="Сочетание 27">
			<path id="Линия 39" d="M2.50002 27.5L2.5 36.5C2.5 39.2615 4.73858 41.5 7.50001 41.5L27.5 41.5L47.5 41.5C50.2614 41.5 52.5 39.2614 52.5 36.5L52.5 27.5" stroke="rgb(176,134,104)" stroke-width="5" />
		</g>
	</g>
</svg>
